# xmcd
# 
# Track frame offsets:
#     183
#     26133
#     57708
#     66558
#     81783
#     101208
#     113808
#     145683
#     153708
#     184533
#     201933
#     224583
#     239883
#     250533
#     259458
#     264633
#     280158
#     286233
#     297933
# 
# Disc length: 4394
# 
# Revision: 4
# Processed by: cddbd v1.5.2PL0 Copyright (c) Steve Scherf et al.
# Submitted via: fre:ac v1.0.17
# 
DISCID=3d112813
DTITLE=Peter TSCHAIKOWSKY - La belle au bois dormant - Le lac des cygnes - Casse-noisette
DYEAR=1967
DGENRE=Classical
TTITLE0=La belle au bois dormant - I. Introduction
TTITLE1=II. Adagio
TTITLE2=III. Pas de caractère
TTITLE3=IV. Panorama
TTITLE4=V. Valse
TTITLE5=Le lac des Cygnes - I. Scène
TTITLE6=II. Valse
TTITLE7=III. Danse des Cygnes
TTITLE8=IV. Scène
TTITLE9=V. Danse Hongroise (Czardas)
TTITLE10=VI. Scène finale
TTITLE11=Casse-noisette - I. Ouverture Miniature
TTITLE12=II. Danses caractéristiques (a. Marche)
TTITLE13=II. Danses caractéristiques (b. Danse de la fée Dragée)
TTITLE14=II. Danses caractéristiques (c. Danse Russe Trépak)
TTITLE15=II. Danses caractéristiques (d. Danse Arabe)
TTITLE16=II. Danses caractéristiques (e. Danse Chinoise)
TTITLE17=II. Danses caractéristiques (f. Danse des Mirlitons)
TTITLE18=III. Valse des Fleurs
EXTD=YEAR: 1989/9/16
EXTT0=
EXTT1=
EXTT2=
EXTT3=
EXTT4=
EXTT5=
EXTT6=
EXTT7=
EXTT8=
EXTT9=
EXTT10=
EXTT11=
EXTT12=
EXTT13=
EXTT14=
EXTT15=
EXTT16=
EXTT17=
EXTT18=
PLAYORDER=
